<svg xmlns="http://www.w3.org/2000/svg" xmlns:xlink="http://www.w3.org/1999/xlink" xmlns:inkscape="http://www.inkscape.org/namespaces/inkscape" version="1.1" width="150.939" height="141.008" viewBox="0 0 150.939 141.008">
<defs>
<clipPath id="clip_1">
<path transform="matrix(1,0,0,-1,0,141.008)" d="M0 141.008H150.939V0H0Z"/>
</clipPath>
</defs>
<g inkscape:groupmode="layer" inkscape:label="Layer 1">
<g clip-path="url(#clip_1)">
<path transform="matrix(1,0,0,-1,96.5958,18.373299)" d="M0 0H-24.383C-24.383 0-45.812-5.44-45.812-27.91-45.812-50.38-21.929-53.928-21.929-53.928H3.241V-29.659L-8.764-21.184-35.485-37.747V-30.356C-35.485-26.811-33.657-23.517-30.649-21.641L-12.392-10.253C-9.806-8.64-6.536-8.601-3.912-10.152L13.409-20.394C16.948-22.486 19.119-26.292 19.119-30.403V-58.221C19.119-63.295 15.005-67.41 9.93-67.41H-21.929C-21.929-67.41-62.076-64.571-62.076-27.555-62.076 9.461-24.383 12.299-24.383 12.299H19.119L6.691 2.349C4.792 .828 2.432 0 0 0" fill="#ffe700"/>
<path transform="matrix(1,0,0,-1,85.4691,49.210397)" d="M0 0C0 .069-.056 .126-.125 .126H-5.562C-6.612 .126-7.472-.739-7.472-1.796V-7.269C-7.472-7.339-7.415-7.395-7.346-7.395H-.125C-.056-7.395 0-7.339 0-7.269Z" fill="#ffe700"/>
<path transform="matrix(1,0,0,-1,94.2819,51.006799)" d="M0 0C0 1.057-.859 1.923-1.91 1.923H-7.346C-7.415 1.923-7.472 1.866-7.472 1.796V-5.473C-7.472-5.542-7.415-5.599-7.346-5.599H-.125C-.056-5.599 0-5.542 0-5.473Z" fill="#ffe700"/>
<path transform="matrix(1,0,0,-1,78.1229,58.075494)" d="M0 0C-.069 0-.125-.057-.125-.126V-5.599C-.125-6.656 .734-7.522 1.784-7.522H7.221C7.29-7.522 7.346-7.465 7.346-7.395V-.126C7.346-.057 7.29 0 7.221 0Z" fill="#ffe700"/>
<path transform="matrix(1,0,0,-1,86.9357,58.075494)" d="M0 0C-.069 0-.125-.057-.125-.126V-7.395C-.125-7.465-.069-7.522 0-7.522H5.436C6.487-7.522 7.346-6.656 7.346-5.599V-.126C7.346-.057 7.29 0 7.221 0Z" fill="#ffe700"/>
<path transform="matrix(1,0,0,-1,32.8288,96.856899)" d="M0 0C.291 .292 .639 .52 1.035 .679 1.433 .839 1.87 .92 2.334 .92H8.388L10.887 4.834H2.334C1.318 4.834 .362 4.666-.504 4.334-1.373 4.002-2.132 3.52-2.761 2.904-3.389 2.289-3.889 1.543-4.248 .686-4.605-.171-4.786-1.128-4.786-2.157-4.786-3.186-4.605-4.156-4.248-5.04-3.89-5.924-3.39-6.699-2.763-7.342-2.135-7.986-1.377-8.499-.508-8.866 .358-9.234 1.315-9.42 2.334-9.42H10.426V-.409H2.798L.457-3.801H6.577V-5.548H2.334C1.858-5.548 1.414-5.47 1.016-5.317 .619-5.164 .271-4.945-.02-4.667-.309-4.391-.537-4.052-.697-3.661-.857-3.27-.938-2.828-.938-2.345-.938-1.864-.854-1.422-.69-1.031-.523-.638-.292-.291 0 0" fill="#ffe700"/>
<path transform="matrix(1,0,0,-1,44.0857,100.5536)" d="M0 0H6.12L8.052 2.974H1.932Z" fill="#ffe700"/>
<path transform="matrix(1,0,0,-1,63.5706,96.9731)" d="M0 0H-6.615V4.951H-10.497V-9.304H-6.615V-3.915H0V-9.304H3.848V4.951H0Z" fill="#ffe700"/>
<path transform="matrix(1,0,0,-1,73.0748,97.36)" d="M0 0C.161 .435 .426 .778 .786 1.018 1.154 1.263 1.645 1.431 2.245 1.519 2.86 1.608 3.622 1.653 4.511 1.653 5.4 1.653 6.163 1.608 6.778 1.519 7.378 1.431 7.869 1.263 8.235 1.018 8.595 .779 8.86 .436 9.022 0 9.189-.449 9.274-1.048 9.274-1.779 9.274-2.511 9.189-3.11 9.022-3.558 8.86-3.995 8.595-4.342 8.234-4.588 7.867-4.84 7.377-5.011 6.778-5.098 6.167-5.187 5.404-5.233 4.511-5.233 3.618-5.233 2.855-5.187 2.245-5.098 1.646-5.011 1.156-4.84 .787-4.588 .426-4.341 .161-3.995 0-3.558-.167-3.11-.252-2.511-.252-1.779-.252-1.048-.167-.449 0 0M10.948 3.802C9.513 4.974 7.348 5.567 4.511 5.567 1.662 5.567-.507 4.974-1.935 3.802-3.371 2.624-4.099 .746-4.099-1.779-4.099-4.318-3.374-6.203-1.945-7.381-.522-8.553 1.65-9.147 4.511-9.147 7.36-9.147 9.529-8.553 10.957-7.381 12.393-6.204 13.121-4.318 13.121-1.779 13.121 .746 12.39 2.624 10.948 3.802" fill="#ffe700"/>
<path transform="matrix(1,0,0,-1,104.2412,92.2961)" d="M0 0C-.388 .334-.83 .504-1.312 .504-1.818 .504-2.248 .356-2.591 .063-2.923-.222-3.2-.6-3.414-1.06L-5.934-6.449C-6.126-6.854-6.294-7.221-6.439-7.549-6.582-7.877-6.71-8.17-6.82-8.428-6.883-8.576-6.943-8.722-7-8.867L-7.186-8.418C-7.296-8.153-7.424-7.86-7.568-7.538-7.713-7.217-7.881-6.851-8.072-6.44-8.262-6.029-8.484-5.552-8.739-5.008L-10.591-1.062C-10.806-.586-11.084-.204-11.417 .074-11.76 .359-12.184 .504-12.677 .504-13.158 .504-13.602 .334-13.997 0-14.388-.332-14.671-.845-14.838-1.525L-17.878-13.981H-14.071L-12.955-9.004C-12.782-8.21-12.632-7.509-12.505-6.903-12.415-6.475-12.333-6.055-12.26-5.649L-12.157-5.913C-12.058-6.165-11.942-6.442-11.808-6.743-11.675-7.043-11.529-7.379-11.367-7.755-11.205-8.131-11.02-8.557-10.813-9.03L-9.254-12.56C-9.1-12.916-8.94-13.204-8.777-13.415-8.609-13.632-8.443-13.795-8.269-13.915-8.092-14.037-7.898-14.118-7.696-14.156-7.502-14.193-7.289-14.211-7.063-14.211-6.838-14.211-6.626-14.193-6.431-14.156-6.229-14.118-6.036-14.037-5.859-13.915-5.684-13.795-5.518-13.632-5.351-13.415-5.188-13.204-5.027-12.916-4.875-12.561L-3.315-9.05C-2.906-8.108-2.594-7.372-2.361-6.802-2.192-6.39-2.035-6.003-1.888-5.642-1.814-6.059-1.731-6.486-1.64-6.914-1.513-7.514-1.357-8.211-1.172-9.004L-.056-13.981H3.802L.832-1.525C.665-.845 .385-.333 0 0" fill="#ffe700"/>
<path transform="matrix(1,0,0,-1,112.9247,102.40469)" d="M0 0V1.622H7.056L9.298 5.076H0V6.468H7.437L9.937 10.382H-3.882V-3.873H7.489L9.972 0Z" fill="#ffe700"/>
<path transform="matrix(1,0,0,-1,14.5318,119.865299)" d="M0 0C0 .668-.119 1.187-.357 1.557-.654 2.006-1.124 2.23-1.765 2.23-2.373 2.23-2.832 2.003-3.143 1.547-3.4 1.156-3.529 .641-3.529 0V-4.382C-3.529-5.029-3.4-5.548-3.143-5.938-2.838-6.394-2.379-6.622-1.765-6.622-1.124-6.622-.654-6.397-.357-5.948-.119-5.571 0-5.049 0-4.382ZM3.836-4.282C3.836-5.452 3.592-6.474 3.103-7.346 2.574-8.271 1.798-8.968 .773-9.438 .006-9.808-.819-9.992-1.705-9.992-2.485-9.992-3.248-9.837-3.995-9.526-6.242-8.582-7.366-6.834-7.366-4.282V-.099C-7.366 2.498-6.235 4.25-3.975 5.155-3.208 5.452-2.452 5.602-1.705 5.602-.932 5.602-.165 5.439 .595 5.115 2.756 4.17 3.836 2.433 3.836-.099Z" fill="#ffe700"/>
<path transform="matrix(1,0,0,-1,26.8248,118.2296)" d="M0 0C-.397 .396-.889 .595-1.478 .595-2.052 .595-2.538 .406-2.935 .03-3.344-.36-3.549-.843-3.549-1.418-3.549-1.999-3.351-2.485-2.955-2.875-2.558-3.265-2.065-3.46-1.478-3.46-.896-3.46-.41-3.278-.02-2.914 .39-2.531 .595-2.052 .595-1.477 .595-.889 .396-.396 0 0M4.035-3.866C3.803-4.494 3.456-5.151 2.994-5.839L-.744-11.341H-5.195L-1.884-6.791-1.923-6.751C-2.022-6.791-2.145-6.813-2.29-6.82-2.343-6.827-2.406-6.83-2.479-6.83H-2.657C-3.331-6.83-3.995-6.668-4.649-6.345-6.474-5.445-7.386-3.909-7.386-1.734-7.386-.083-6.827 1.282-5.71 2.359-4.6 3.43-3.215 3.966-1.557 3.966 .439 3.966 2.016 3.312 3.172 2.003 4.011 1.051 4.431-.175 4.431-1.675 4.431-2.422 4.299-3.152 4.035-3.866" fill="#ffe700"/>
<path transform="matrix(1,0,0,-1,39.6129,119.865299)" d="M0 0C0 .668-.119 1.187-.357 1.557-.654 2.006-1.124 2.23-1.765 2.23-2.373 2.23-2.832 2.003-3.143 1.547-3.4 1.156-3.529 .641-3.529 0V-4.382C-3.529-5.029-3.4-5.548-3.143-5.938-2.838-6.394-2.379-6.622-1.765-6.622-1.124-6.622-.654-6.397-.357-5.948-.119-5.571 0-5.049 0-4.382ZM3.836-4.282C3.836-5.452 3.592-6.474 3.103-7.346 2.574-8.271 1.798-8.968 .773-9.438 .006-9.808-.819-9.992-1.705-9.992-2.485-9.992-3.248-9.837-3.995-9.526-6.242-8.582-7.366-6.834-7.366-4.282V-.099C-7.366 2.498-6.235 4.25-3.975 5.155-3.208 5.452-2.452 5.602-1.705 5.602-.932 5.602-.165 5.439 .595 5.115 2.756 4.17 3.836 2.433 3.836-.099Z" fill="#ffe700"/>
<path transform="matrix(1,0,0,-1,49.9523,129.57039)" d="M0 0H-4.223L1.318 11.797H-4.511V15.028H5.274V12.084Z" fill="#ffe700"/>
<path transform="matrix(1,0,0,-1,72.8917,128.58899)" d="M0 0C-1.097-.846-2.356-1.269-3.777-1.269-4.696-1.269-5.565-1.097-6.384-.754-7.316-.377-8.01 .155-8.466 .843-8.724 1.232-8.919 1.659-9.051 2.121-9.157 2.498-9.239 2.961-9.299 3.51H-5.422C-5.211 2.57-4.629 2.102-3.678 2.102-2.594 2.102-2.052 2.663-2.052 3.787-2.052 4.554-2.465 5.032-3.291 5.225-3.582 5.29-3.949 5.323-4.392 5.323L-5.422 5.313V8.139H-4.996C-4.831 8.139-4.686 8.143-4.56 8.148-4.229 8.175-3.956 8.229-3.737 8.308-3.169 8.519-2.885 8.962-2.885 9.636-2.885 10.515-3.235 10.954-3.936 10.954-4.702 10.954-5.095 10.521-5.115 9.655H-8.892C-8.873 11.103-8.364 12.256-7.366 13.115-6.42 13.922-5.218 14.325-3.757 14.325-2.495 14.325-1.411 13.965-.505 13.244 .466 12.465 .952 11.456 .952 10.221 .952 8.839 .291 7.792-1.031 7.078 .846 6.437 1.785 5.225 1.785 3.439 1.785 2.065 1.189 .919 0 0" fill="#ffe700"/>
<path transform="matrix(1,0,0,-1,87.0382,126.5275)" d="M0 0C-.965-2.233-2.736-3.351-5.313-3.351-6.741-3.351-7.974-2.98-9.011-2.24-10.108-1.453-10.786-.38-11.043 .981H-7.187C-6.738 .354-6.149 .04-5.422 .04-4.867 .04-4.392 .235-3.995 .625-3.592 1.015-3.39 1.484-3.39 2.032-3.39 3.348-4.074 4.006-5.442 4.006-6.381 4.006-7.035 3.572-7.405 2.707L-10.518 3.47-9.219 11.985H-.912V8.754H-6.275L-6.592 6.702C-6.05 6.999-5.376 7.148-4.57 7.148-2.336 7.148-.8 6.14 .04 4.124 .311 3.477 .446 2.806 .446 2.112 .446 1.385 .297 .681 0 0" fill="#ffe700"/>
<path transform="matrix(1,0,0,-1,97.9728,128.58899)" d="M0 0C-1.097-.846-2.356-1.269-3.777-1.269-4.696-1.269-5.565-1.097-6.384-.754-7.316-.377-8.01 .155-8.466 .843-8.724 1.232-8.919 1.659-9.051 2.121-9.157 2.498-9.239 2.961-9.299 3.51H-5.422C-5.211 2.57-4.629 2.102-3.678 2.102-2.594 2.102-2.052 2.663-2.052 3.787-2.052 4.554-2.465 5.032-3.291 5.225-3.582 5.29-3.949 5.323-4.392 5.323L-5.422 5.313V8.139H-4.996C-4.831 8.139-4.686 8.143-4.56 8.148-4.229 8.175-3.956 8.229-3.737 8.308-3.169 8.519-2.885 8.962-2.885 9.636-2.885 10.515-3.235 10.954-3.936 10.954-4.702 10.954-5.095 10.521-5.115 9.655H-8.892C-8.873 11.103-8.364 12.256-7.366 13.115-6.42 13.922-5.218 14.325-3.757 14.325-2.495 14.325-1.411 13.965-.505 13.244 .466 12.465 .952 11.456 .952 10.221 .952 8.839 .291 7.792-1.031 7.078 .846 6.437 1.785 5.225 1.785 3.439 1.785 2.065 1.189 .919 0 0" fill="#ffe700"/>
<path transform="matrix(1,0,0,-1,114.548,122.97769)" d="M0 0C-.403 .383-.902 .574-1.497 .574-2.072 .574-2.554 .387-2.944 .01-3.334-.374-3.529-.85-3.529-1.418-3.529-2-3.337-2.492-2.954-2.896-2.564-3.305-2.079-3.51-1.497-3.51-.916-3.51-.42-3.318-.01-2.935 .406-2.545 .615-2.06 .615-1.478 .615-.883 .41-.391 0 0M2.766-5.255C1.656-6.339 .274-6.88-1.378-6.88-3.096-6.88-4.511-6.345-5.621-5.274-6.745-4.19-7.306-2.789-7.306-1.071-7.306-.377-7.177 .327-6.919 1.041-6.688 1.675-6.358 2.313-5.928 2.954L-2.191 8.436H2.26L-1.051 3.905-1.011 3.866C-.912 3.898-.793 3.922-.654 3.936L-.277 3.945C1.11 3.945 2.253 3.439 3.152 2.429 4.018 1.45 4.451 .258 4.451-1.15 4.451-2.796 3.889-4.164 2.766-5.255" fill="#ffe700"/>
<path transform="matrix(1,0,0,-1,125.1852,129.57039)" d="M0 0H-4.223L1.318 11.797H-4.511V15.028H5.274V12.084Z" fill="#ffe700"/>
<path transform="matrix(1,0,0,-1,139.6788,118.2296)" d="M0 0C-.397 .396-.889 .595-1.478 .595-2.052 .595-2.538 .406-2.935 .03-3.344-.36-3.549-.843-3.549-1.418-3.549-1.999-3.351-2.485-2.955-2.875-2.558-3.265-2.065-3.46-1.478-3.46-.896-3.46-.41-3.278-.02-2.914 .39-2.531 .595-2.052 .595-1.477 .595-.889 .396-.396 0 0M4.035-3.866C3.803-4.494 3.456-5.151 2.994-5.839L-.744-11.341H-5.195L-1.884-6.791-1.923-6.751C-2.022-6.791-2.145-6.813-2.29-6.82-2.343-6.827-2.406-6.83-2.479-6.83H-2.657C-3.331-6.83-3.995-6.668-4.649-6.345-6.474-5.445-7.386-3.909-7.386-1.734-7.386-.083-6.827 1.282-5.71 2.359-4.6 3.43-3.215 3.966-1.557 3.966 .439 3.966 2.016 3.312 3.172 2.003 4.011 1.051 4.431-.175 4.431-1.675 4.431-2.422 4.299-3.152 4.035-3.866" fill="#ffe700"/>
</g>
</g>
</svg>
