<svg xmlns="http://www.w3.org/2000/svg" xmlns:xlink="http://www.w3.org/1999/xlink" xmlns:inkscape="http://www.inkscape.org/namespaces/inkscape" version="1.1" width="1275.84" height="1241.8" viewBox="0 0 1275.84 1241.8">
<defs>
<clipPath id="clip_1">
<path transform="matrix(1,0,0,-1,0,1241.8)" d="M0 1241.8H1275.84V0H0Z"/>
</clipPath>
</defs>
<g inkscape:groupmode="layer" inkscape:label="Layer 1">
<g clip-path="url(#clip_1)">
<path transform="matrix(1,0,0,-1,413.5424,748.0121)" d="M0 0H-195.8V287.591C-195.8 323.248-166.895 352.153-131.24 352.153H64.562V64.562C64.562 28.905 35.657 0 0 0" fill="#ed1c24"/>
<path transform="matrix(1,0,0,-1,993.5359,748.0121)" d="M0 0H-195.8V287.591C-195.8 323.248-166.895 352.153-131.24 352.153H64.562V64.562C64.562 28.905 35.657 0 0 0" fill="#ed1c24"/>
<path transform="matrix(1,0,0,-1,703.5391,654.5859)" d="M0 0H-195.8V287.591C-195.8 323.248-166.895 352.153-131.24 352.153H64.562V64.562C64.562 28.905 35.657 0 0 0" fill="#ed1c24"/>
<path transform="matrix(1,0,0,-1,316.2322,593.637)" d="M0 0V-42.8H39.74C49.407-42.8 57.821-41.044 64.977-37.525 72.131-34.01 77.762-29.162 81.874-22.982 85.982-16.804 89.003-9.998 90.938-2.561 92.871 4.873 93.838 12.96 93.838 21.702 93.838 30.442 92.871 38.528 90.938 45.964 89.003 53.398 85.982 60.206 81.874 66.386 77.762 72.563 72.131 77.41 64.977 80.929 57.821 84.444 49.407 86.204 39.74 86.204H0V43.554H42.496V0ZM-80.207 0V43.554H-48.298V129.756H39.74C56.854 129.756 72.083 127.068 85.427 121.695 98.771 116.318 109.647 108.757 118.061 99.013 126.472 89.267 132.83 77.888 137.133 64.878 141.434 51.866 143.588 37.473 143.588 21.702 143.588 5.927 141.434-8.465 137.133-21.475 132.83-34.487 126.472-45.866 118.061-55.61 109.647-65.356 98.771-72.918 85.427-78.29 72.083-83.667 56.854-86.353 39.74-86.353H-48.298V0Z" fill="#ffffff"/>
<path transform="matrix(1,0,0,-1,544.7327,373.15907)" d="M0 0H186.374V-43.553H117.337V-216.11H69.039V-43.553H0Z" fill="#ffffff"/>
<path transform="matrix(1,0,0,-1,901.447,463.88069)" d="M0 0V-172.557H101.236V-216.11H-48.298V0Z" fill="#ffffff"/>
<path transform="matrix(1,0,0,-1,381.0687,846.9004)" d="M0 0C0 7.785-4.457 11.682-13.37 11.682H-26.389V-8.234H-13.652V-25.405H-26.389V-46.023H-13.37C-4.457-46.023 0-42.13 0-34.342ZM-57.492-8.234H-47.992V30.822H-10.767C.257 30.822 8.608 28.289 14.285 23.221 19.164 18.811 21.604 13.041 21.604 5.91V-40.252C21.604-47.337 19.164-53.085 14.285-57.492 8.608-62.607 .257-65.163-10.767-65.163H-47.992V-25.405H-57.492Z" fill="#ed1c24"/>
<path transform="matrix(1,0,0,-1,0,1241.8)" d="M442.361 318.125H458.828V302.433H442.361ZM453.057 354.929H443.135C439.007 354.929 436.943 353.263 436.943 349.932 436.943 346.273 438.795 344.444 442.502 344.444 445.925 344.444 449.444 345.264 453.057 346.908ZM456.787 329.736 455.379 334.169C451.626 332.105 447.873 330.581 444.121 329.595 440.929 328.75 437.998 328.328 435.323 328.328 429.177 328.328 424.51 330.369 421.32 334.451 418.458 338.157 417.028 343.224 417.028 349.651 417.028 362.786 423.995 369.355 437.928 369.355H453.057V374.702C453.057 378.503 452.376 381.012 451.017 382.234 449.422 383.64 445.974 384.344 440.673 384.344 434.855 384.344 428.521 383.687 421.673 382.373L418.928 397.924C426.48 400.223 434.878 401.374 444.121 401.374 455.943 401.374 463.941 399.332 468.117 395.251 471.916 391.544 473.817 384.648 473.817 374.563V329.736Z" fill="#ed1c24"/>
<path transform="matrix(1,0,0,-1,0,1241.8)" d="M491.057 399.896H511.816V329.736H491.057ZM491.057 430.788H511.816V408.692H491.057Z" fill="#ed1c24"/>
<path transform="matrix(1,0,0,-1,600.5531,835.21926)" d="M0 0V-76.845H-21.604V0H-47.429V19.14H25.755V0Z" fill="#ed1c24"/>
<path transform="matrix(1,0,0,-1,671.2754,886.8716)" d="M0 0H-9.922C-14.051 0-16.115-1.665-16.115-4.996-16.115-8.654-14.262-10.485-10.555-10.485-7.132-10.485-3.612-9.665 0-8.021ZM-3.871 52.215C-10.625 55.919-18.086 60.424-26.247 65.726L-18.437 77.831C-14.919 75.249-11.213 72.669-7.318 70.088L3.307 63.123ZM3.729-25.193 2.322-20.759C-1.432-22.824-5.184-24.348-8.937-25.333-12.127-26.178-15.059-26.6-17.733-26.6-23.88-26.6-28.547-24.559-31.737-20.478-34.599-16.772-36.029-11.705-36.029-5.278-36.029 7.857-29.063 14.426-15.13 14.426H0V19.774C0 23.574-.68 26.083-2.04 27.305-3.637 28.711-7.084 29.416-12.386 29.416-18.203 29.416-24.536 28.758-31.386 27.444L-34.129 42.997C-26.577 45.294-18.179 46.445-8.937 46.445 2.886 46.445 10.882 44.405 15.058 40.322 18.859 36.615 20.759 29.719 20.759 19.634V-25.193Z" fill="#ed1c24"/>
<path transform="matrix(1,0,0,-1,0,1241.8)" d="M709.276 399.896H730.035V329.736H709.276ZM709.276 430.788H730.035V408.692H709.276Z" fill="#ed1c24"/>
<path transform="matrix(1,0,0,-1,779.0117,912.06387)" d="M0 0V95.985H21.604V19.14H59.674V0Z" fill="#ed1c24"/>
<path transform="matrix(1,0,0,-1,0,1241.8)" d="M870.705 318.125H887.10006V302.433H870.705ZM889.846 356.125V373.577C889.846 380.473 886.186 383.921 878.868 383.921 871.595 383.921 867.96 380.473 867.96 373.577V356.125C867.96 349.182 871.595 345.711 878.868 345.711 886.186 345.711 889.846 349.182 889.846 356.125M904.06 392.717C904.06 392.67 904.083 392.623 904.129 392.577 908.446 387.791 910.604 381.248 910.604 372.944V356.688C910.604 348.384 908.446 341.84 904.129 337.054 898.783 331.236 890.36 328.328 878.868 328.328 867.421 328.328 859.023 331.236 853.675 337.054 849.358 341.84 847.201 348.384 847.201 356.688V372.944C847.201 381.248 849.358 387.791 853.675 392.577 859.023 398.441 867.421 401.374 878.868 401.374 886.139 401.374 892.168 400.199 896.953 397.855L899.275 403.063H894.349V416.925H909.057V401.866Z" fill="#ed1c24"/>
<path transform="matrix(1,0,0,-1,0,1241.8)" d="M925.733 399.896H946.49197V329.736H925.733ZM925.733 430.788H946.49197V408.692H925.733Z" fill="#ed1c24"/>
</g>
</g>
</svg>
